<svg height="512pt" viewBox="0 -31 512.001 512" width="512pt" xmlns="http://www.w3.org/2000/svg"><path d="m7.503906 348.742188c0 52.027343 67.976563 94.207031 151.832032 94.207031 83.851562 0 151.828124-42.179688 151.828124-94.207031v-103.261719h-303.660156zm0 0" fill="#ffdc13"/><path d="m229.339844 432.351562c48.621094-15.703124 81.824218-47.25 81.824218-83.609374v-103.261719h-81.824218zm0 0" fill="#fa0"/><path d="m498.984375 116.894531h-208.855469v-106.390625c0-1.667968 1.359375-3.015625 3.027344-3 .347656.003906.675781.007813.945312.011719 67.402344 1.023437 131.851563 28.105469 179.777344 75.652344l27.683594 27.460937c2.324219 2.304688.691406 6.265625-2.578125 6.265625zm0 0" fill="#fa0"/><path d="m501.5625 110.628906-27.683594-27.460937c-47.925781-47.546875-112.375-74.628907-179.777344-75.65625-.269531-.003907-.597656-.007813-.945312-.007813-1.667969-.015625-3.027344 1.332032-3.027344 3v11.375c38.941406 12.441406 74.789063 33.964844 104.347656 63.285156l27.683594 27.464844c1.246094 1.234375 1.347656 2.941406.675782 4.261719h76.148437c3.269531.003906 4.902344-3.957031 2.578125-6.261719zm0 0" fill="#ff8500"/><path d="m493.773438 216.703125h-479.472657c51.296875-68.847656 132.105469-109.410156 217.960938-109.410156h261.511719c5.921874 0 10.722656 4.800781 10.722656 10.726562v87.957031c0 5.925782-4.800782 10.726563-10.722656 10.726563zm0 0" fill="#ffdc13"/><path d="m311.164062 245.480469c0-52.03125-67.976562-94.207031-151.828124-94.207031-83.855469 0-151.832032 42.175781-151.832032 94.207031 0 52.027343 67.976563 94.207031 151.832032 94.207031 83.851562 0 151.828124-42.179688 151.828124-94.207031zm0 0" fill="#fa0"/><path d="m218.96875 158.820312c28.480469 17.125 46.1875 41.105469 46.1875 67.65625 0 52.027344-67.976562 94.207032-151.832031 94.207032-21.171875 0-41.328125-2.691406-59.636719-7.550782 27.332031 16.433594 64.582031 26.554688 105.644531 26.554688 83.855469 0 151.832031-42.179688 151.832031-94.210938 0-38.890624-37.988281-72.277343-92.195312-86.65625zm0 0" fill="#ff8500"/><path d="m225.25 245.480469c0-22.589844-29.511719-40.902344-65.914062-40.902344-36.40625 0-65.917969 18.3125-65.917969 40.902344 0 22.585937 29.511719 40.898437 65.917969 40.898437 36.402343 0 65.914062-18.3125 65.914062-40.898437zm0 0" fill="#ff8500"/><path d="m173.566406 205.546875c10.15625 7.195313 16.328125 16.613281 16.328125 26.929687 0 22.589844-29.511719 40.898438-65.917969 40.898438-4.886718 0-9.644531-.339844-14.230468-.964844 12.082031 8.558594 29.808594 13.96875 49.585937 13.96875 36.40625 0 65.917969-18.3125 65.917969-40.902344 0-19.550781-22.125-35.890624-51.683594-39.929687zm0 0" fill="#ff6d00"/><g fill="#fa0"><path d="m251.679688 363.339844c-4.144532 0-7.503907 3.359375-7.503907 7.5v56.039062c5.246094-2.199218 10.253907-4.59375 15.003907-7.167968v-48.871094c0-4.140625-3.359376-7.5-7.5-7.5zm0 0"/><path d="m159.660156 384.34375c-4.144531 0-7.503906 3.359375-7.503906 7.5v50.996094c2.378906.070312 4.769531.109375 7.175781.109375 2.625 0 5.234375-.042969 7.828125-.125v-50.980469c0-4.140625-3.355468-7.5-7.5-7.5zm0 0"/><path d="m205.667969 408.109375c-4.140625 0-7.5 3.359375-7.5 7.5v24.222656c5.113281-.835937 10.117187-1.835937 15.003906-2.984375v-21.238281c0-4.144531-3.359375-7.5-7.503906-7.5zm0 0"/><path d="m113.652344 408.109375c-4.144532 0-7.503906 3.359375-7.503906 7.5v21.390625c4.886718 1.132812 9.890624 2.121094 15.003906 2.941406v-24.332031c0-4.144531-3.359375-7.5-7.5-7.5zm0 0"/><path d="m67.640625 363.339844c-4.144531 0-7.5 3.359375-7.5 7.5v49.226562c4.75 2.546875 9.761719 4.910156 15 7.078125v-56.304687c.003906-4.140625-3.355469-7.5-7.5-7.5zm0 0"/><path d="m474.722656 186.0625c-4.144531 0-7.5 3.359375-7.5 7.503906v23.136719h15.003906v-23.136719c0-4.144531-3.359374-7.503906-7.503906-7.503906zm0 0"/><path d="m428.714844 157.296875c-4.144532 0-7.5 3.359375-7.5 7.503906v51.902344h15v-51.902344c0-4.144531-3.359375-7.503906-7.5-7.503906zm0 0"/><path d="m336.695312 157.296875c-4.144531 0-7.503906 3.359375-7.503906 7.503906v51.902344h15.003906v-51.902344c0-4.144531-3.355468-7.503906-7.5-7.503906zm0 0"/><path d="m382.703125 186.0625c-4.140625 0-7.5 3.359375-7.5 7.503906v23.136719h15.003906v-23.136719c0-4.144531-3.359375-7.503906-7.503906-7.503906zm0 0"/></g><path d="m251.679688 363.339844c-4.144532 0-7.503907 3.359375-7.503907 7.5v56.039062c5.246094-2.199218 10.253907-4.59375 15.003907-7.167968v-48.871094c0-4.140625-3.359376-7.5-7.5-7.5zm0 0" fill="#ff8500"/><path d="m493.773438 107.292969h-48.921876v109.410156h48.917969c5.925781 0 10.726563-4.800781 10.726563-10.726563v-87.957031c0-5.925781-4.800782-10.726562-10.722656-10.726562zm0 0" fill="#fa0"/><path d="m474.722656 186.0625c-4.144531 0-7.5 3.359375-7.5 7.503906v23.136719h15.003906v-23.136719c0-4.144531-3.359374-7.503906-7.503906-7.503906zm0 0" fill="#ff8500"/><path d="m507.542969 106.113281c-.214844-.28125-.4375-.554687-.695313-.808593l-27.683594-27.464844c-49.519531-49.128906-115.203124-76.765625-184.9375-77.8281252l-1-.0117188c-.03125 0-.066406 0-.097656 0-2.785156 0-5.40625 1.078125-7.390625 3.042969-2.003906 1.988281-3.109375 4.636719-3.109375 7.460937v61.703125c0 4.144531 3.359375 7.503907 7.5 7.503907 4.144532 0 7.503906-3.359376 7.503906-7.503907v-57.113281c64.488282 1.890625 125.074219 27.871094 170.964844 73.398438l11.386719 11.300781h-247.722656c-37.132813 0-73.328125 7.25-107.585938 21.550781-34.035156 14.207031-64.46875 34.660156-90.457031 60.792969-.109375.109375-.210938.230469-.3125.347656-21.988281 17.789063-33.90625 39.714844-33.90625 62.996094v103.261719c0 27.851562 17.054688 53.773437 48.015625 72.988281 29.851563 18.519531 69.382813 28.71875 111.320313 28.71875h.28125.042968c.019532 0 .039063-.003907.058594-.003907 41.792969-.0625 81.175781-10.253906 110.933594-28.714843 30.964844-19.214844 48.015625-45.136719 48.015625-72.988281v-103.261719c0-7.253907-1.164063-14.371094-3.421875-21.277344h178.527344c10.050781 0 18.226562-8.175781 18.226562-18.226563v-87.957031c0-4.550781-1.6875-8.710937-4.457031-11.90625zm-203.878907 242.628907c0 22.46875-14.535156 43.863281-40.925781 60.238281-1.160156.722656-2.363281 1.410156-3.558593 2.105469v-40.246094c0-4.140625-3.359376-7.5-7.5-7.5-4.144532 0-7.503907 3.359375-7.503907 7.5v47.867187c-9.652343 4.273438-20.050781 7.769531-31.003906 10.441407v-13.539063c0-4.140625-3.359375-7.5-7.503906-7.5-4.140625 0-7.5 3.359375-7.5 7.5v16.621094c-10.03125 1.691406-20.402344 2.742187-31.007813 3.085937v-43.472656c0-4.140625-3.355468-7.5-7.5-7.5-4.140625 0-7.5 3.359375-7.5 7.5v43.496094c-10.601562-.3125-20.972656-1.339844-31.007812-3v-16.730469c0-4.144531-3.359375-7.5-7.5-7.5-4.144532 0-7.503906 3.359375-7.503906 7.5v13.695313c-10.945313-2.632813-21.34375-6.085938-31.003907-10.3125v-48.152344c0-4.140625-3.359375-7.5-7.503906-7.5s-7.5 3.359375-7.5 7.5v40.628906c-1.421875-.8125-2.839844-1.632812-4.214844-2.488281-26.390625-16.371094-40.921875-37.765625-40.921875-60.238281v-59.800782c8.007813 10.90625 19.101563 20.894532 33.011719 29.527344 29.847656 18.519531 69.382813 28.71875 111.316406 28.71875 41.9375 0 81.46875-10.199219 111.316407-28.71875 13.914062-8.632812 25.003906-18.621094 33.015624-29.527344zm-40.925781-43.023438c-27.503906 17.066406-64.226562 26.464844-103.402343 26.464844-39.179688 0-75.902344-9.398438-103.40625-26.464844-26.394532-16.375-40.925782-37.765625-40.925782-60.242188 0-22.472656 14.535156-43.863281 40.925782-60.238281 27.503906-17.066406 64.226562-26.464843 103.40625-26.464843 39.175781 0 75.898437 9.398437 103.402343 26.464843 26.394531 16.375 40.925781 37.765625 40.925781 60.238281 0 22.476563-14.53125 43.867188-40.925781 60.242188zm234.257813-99.742188c0 1.777344-1.445313 3.226563-3.222656 3.226563h-11.546876v-15.636719c0-4.144531-3.359374-7.5-7.503906-7.5-4.144531 0-7.5 3.355469-7.5 7.5v15.636719h-31.007812v-44.402344c0-4.144531-3.359375-7.503906-7.5-7.503906-4.144532 0-7.5 3.359375-7.5 7.503906v44.402344h-31.007813v-15.636719c0-4.144531-3.359375-7.5-7.503906-7.5-4.140625 0-7.5 3.355469-7.5 7.5v15.636719h-31.003906v-44.402344c0-4.144531-3.359375-7.503906-7.503907-7.503906-4.140624 0-7.5 3.359375-7.5 7.503906v44.402344h-20.78125c-8.097656-13.71875-20.847656-26.21875-37.761718-36.710937-29.847656-18.523438-69.382813-28.722657-111.316406-28.722657-21.289063 0-41.957032 2.636719-61.054688 7.648438 40.363281-23.65625 86.816406-36.621094 133.980469-36.621094h261.511719c1.777343 0 3.222656 1.445313 3.222656 3.222656zm0 0"/><path d="m159.335938 197.078125c-15.144532 0-29.648438 2.949219-41.949219 8.523437-3.773438 1.714844-5.445313 6.160157-3.734375 9.933594 1.710937 3.769532 6.15625 5.441406 9.929687 3.730469 10.367188-4.699219 22.730469-7.183594 35.753907-7.183594 31.664062 0 58.414062 15.292969 58.414062 33.398438 0 18.101562-26.75 33.398437-58.414062 33.398437-31.664063 0-58.414063-15.296875-58.414063-33.398437 0-2.292969.433594-4.589844 1.292969-6.828125 1.484375-3.867188-.445313-8.207032-4.3125-9.691406-3.867188-1.488282-8.207032.445312-9.691406 4.3125-1.523438 3.960937-2.292969 8.066406-2.292969 12.207031 0 27.140625 32.25 48.398437 73.417969 48.398437 41.167968 0 73.417968-21.257812 73.417968-48.398437s-32.25-48.402344-73.417968-48.402344zm0 0"/></svg>